<svg xmlns="http://www.w3.org/2000/svg" xmlns:xlink="http://www.w3.org/1999/xlink" preserveAspectRatio="xMidYMid meet" version="1.0" viewBox="63.9 72.4 140.7 130.1" zoomAndPan="magnify" style="fill: rgb(0, 0, 0);" original_string_length="5486"><g color="#000" paint-order="fill markers stroke"><g id="__id214_sodn9zietc"><path d="m 183.21893,116.0474 a 22.224741,22.224741 0 0 1 -22.22474,22.22474 22.224741,22.224741 0 0 1 -22.22474,-22.22474 22.224741,22.224741 0 0 1 22.22474,-22.22474 22.224741,22.224741 0 0 1 22.22474,22.22474 z" style="fill: rgb(255, 204, 0);"/></g><g id="__id215_sodn9zietc"><path d="m 160.99419,72.391155 c -1.61237,0 -2.91042,1.557649 -2.91042,3.492494 v 7.567086 c 0,1.934846 1.29805,3.492501 2.91042,3.492501 1.61237,0 2.91041,-1.557655 2.91041,-3.492501 v -7.567086 c 0,-1.934845 -1.29804,-3.492494 -2.91041,-3.492494 z" style="fill: rgb(255, 204, 0);"/></g><g id="__id216_sodn9zietc"><path d="m 191.86382,85.177773 c -1.14011,-1.140117 -3.15941,-0.956546 -4.52754,0.411597 l -5.35074,5.350737 c -1.36814,1.368143 -1.55172,3.387428 -0.4116,4.527545 1.14012,1.140117 3.15941,0.956544 4.52754,-0.411598 l 5.35075,-5.350738 c 1.36813,-1.368142 1.55171,-3.387426 0.41159,-4.527543 z" style="fill: rgb(255, 204, 0);"/></g><g id="__id217_sodn9zietc"><path d="m 204.65044,116.04741 c 0,-1.61237 -1.55766,-2.91042 -3.4925,-2.91042 h -7.56708 c -1.93485,0 -3.4925,1.29805 -3.4925,2.91042 0,1.61237 1.55765,2.91041 3.4925,2.91041 h 7.56708 c 1.93484,0 3.4925,-1.29804 3.4925,-2.91041 z" style="fill: rgb(255, 204, 0);"/></g><g id="__id218_sodn9zietc"><path d="m 191.86381,146.91704 c 1.14012,-1.14012 0.95655,-3.1594 -0.41159,-4.52755 l -5.35074,-5.35073 c -1.36814,-1.36815 -3.38742,-1.55172 -4.52754,-0.4116 -1.14012,1.14012 -0.95655,3.1594 0.4116,4.52754 l 5.35073,5.35074 c 1.36814,1.36814 3.38743,1.55172 4.52754,0.4116 z" style="fill: rgb(255, 204, 0);"/></g><g id="__id219_sodn9zietc"><path d="m 160.99418,159.70366 c 1.61236,0 2.91041,-1.55766 2.91041,-3.4925 v -7.56709 c 0,-1.93484 -1.29805,-3.4925 -2.91041,-3.4925 -1.61237,0 -2.91042,1.55766 -2.91042,3.4925 v 7.56709 c 0,1.93484 1.29805,3.4925 2.91042,3.4925 z" style="fill: rgb(255, 204, 0);"/></g><g id="__id220_sodn9zietc"><path d="m 130.12455,146.91703 c 1.14012,1.14012 3.1594,0.95655 4.52754,-0.4116 l 5.35074,-5.35073 c 1.36814,-1.36815 1.55171,-3.38743 0.41159,-4.52755 -1.14011,-1.14012 -3.1594,-0.95654 -4.52754,0.4116 l -5.35073,5.35074 c -1.36815,1.36814 -1.55172,3.38742 -0.4116,4.52754 z" style="fill: rgb(255, 204, 0);"/></g><g id="__id221_sodn9zietc"><path d="m 117.33794,116.0474 c 0,1.61237 1.55764,2.91041 3.4925,2.91041 h 7.56707 c 1.93485,0 3.49251,-1.29804 3.49251,-2.91041 0,-1.61237 -1.55766,-2.91042 -3.49251,-2.91042 l -7.56707,1e-5 c -1.93486,-1e-5 -3.4925,1.29804 -3.4925,2.91041 z" style="fill: rgb(255, 204, 0);"/></g><g id="__id222_sodn9zietc"><path d="m 130.12456,85.177772 c -1.14012,1.140117 -0.95655,3.159393 0.4116,4.527545 l 5.35073,5.35073 c 1.36813,1.368144 3.38743,1.551715 4.52754,0.411597 1.14012,-1.140117 0.95654,-3.1594 -0.41159,-4.527545 l -5.35073,-5.350729 c -1.36815,-1.368153 -3.38743,-1.551714 -4.52755,-0.411598 z" style="fill: rgb(255, 204, 0);"/></g><g id="__id223_sodn9zietc"><path d="m 105.75681,107.46958 a 25.311391,25.311391 0 0 0 -25.310996,25.31103 25.311391,25.311391 0 0 0 0.17254,2.80172 c -9.54604,1.71411 -16.70784,9.42416 -16.70784,18.73295 0,10.57575 9.24383,19.08982 20.72609,19.08982 h 29.379316 1.60753 42.96806 c 10.57576,0 19.08983,-7.91415 19.08983,-17.74436 0,-9.76876 -8.40908,-17.64091 -18.89277,-17.73908 a 21.919142,21.919142 0 0 0 -21.74449,-19.16329 21.919142,21.919142 0 0 0 -9.03462,1.96332 25.311391,25.311391 0 0 0 -22.25267,-13.25211 z" style="fill: rgb(173, 198, 221);"/></g><g id="__id224_sodn9zietc"><path d="m 93.540219,161.39584 c -1.922662,2.16821 -7.126685,6.51344 -8.696917,12.42829 a 5.1838992,5.1838992 0 0 0 3.665573,6.34895 5.1838992,5.1838992 0 0 0 6.348952,-3.66556 5.1838992,5.1838992 0 0 0 0.03307,-0.12952 c 1.609786,-6.21239 -0.773768,-12.16269 -1.350731,-14.98217 z" style="fill: rgb(57, 129, 191);"/></g><g id="__id225_sodn9zietc"><path d="m 117.23817,161.39584 c -1.92266,2.16821 -7.12669,6.51344 -8.69692,12.42829 a 5.1838992,5.1838992 0 0 0 3.66557,6.34895 5.1838992,5.1838992 0 0 0 6.34896,-3.66556 5.1838992,5.1838992 0 0 0 0.033,-0.12952 c 1.60978,-6.21239 -0.77378,-12.16269 -1.35074,-14.98217 z" style="fill: rgb(57, 129, 191);"/></g><g id="__id226_sodn9zietc"><path d="m 140.97498,162.0288 c -1.92266,2.16821 -7.12669,6.51344 -8.69693,12.42828 a 5.1838992,5.1838992 0 0 0 3.66558,6.34896 5.1838992,5.1838992 0 0 0 6.34896,-3.66556 5.1838992,5.1838992 0 0 0 0.033,-0.12952 c 1.60977,-6.21239 -0.77378,-12.1627 -1.35074,-14.98217 z" style="fill: rgb(57, 129, 191);"/></g><g id="__id227_sodn9zietc"><path d="m 105.40862,182.97709 c -1.92265,2.16822 -7.126682,6.51345 -8.696914,12.42829 a 5.1838992,5.1838992 0 0 0 3.665574,6.34895 5.1838992,5.1838992 0 0 0 6.34895,-3.66556 5.1838992,5.1838992 0 0 0 0.033,-0.12951 c 1.60978,-6.2124 -0.77377,-12.1627 -1.35074,-14.98218 z" style="fill: rgb(57, 129, 191);"/></g><g id="__id228_sodn9zietc"><path d="m 129.10658,182.97709 c -1.92267,2.16822 -7.1267,6.51345 -8.69693,12.42829 a 5.1838992,5.1838992 0 0 0 3.66557,6.34895 5.1838992,5.1838992 0 0 0 6.34897,-3.66556 5.1838992,5.1838992 0 0 0 0.033,-0.12951 c 1.60978,-6.2124 -0.77378,-12.1627 -1.35073,-14.98218 z" style="fill: rgb(57, 129, 191);"/></g></g></svg>